<svg xmlns="http://www.w3.org/2000/svg" version="1.1" xmlns:xlink="http://www.w3.org/1999/xlink" width="512" height="512" x="0" y="0" viewBox="0 0 512 512" style="enable-background:new 0 0 512 512" xml:space="preserve" class=""><g><path d="M466 22.86H46c-19.3 0-35 15.7-35 35v269.78c0 19.3 15.7 35 35 35h156.67c-.63 30.76-7.57 76.66-43.29 76.66h-20c-13.74 0-24.92 11.18-24.92 24.92v9.92c0 8.27 6.73 15 15 15h253.08c8.27 0 15-6.73 15-15v-9.92c0-13.74-11.18-24.92-24.92-24.92h-20c-35.72 0-42.66-45.89-43.29-76.66H466c19.3 0 35-15.7 35-35V57.86c0-19.3-15.7-35-35-35zm-93.38 426.43c8.23 0 14.92 6.7 14.92 14.92v9.92c0 2.76-2.24 5-5 5H129.46c-2.76 0-5-2.24-5-5v-9.92c0-8.23 6.69-14.92 14.92-14.92zm-59.83-24.42c3.34 5.83 7.3 10.64 11.79 14.42H187.42c4.5-3.78 8.45-8.59 11.79-14.42 8.44-14.75 12.96-35.67 13.46-62.23h86.65c.5 26.56 5.02 47.48 13.47 62.23zM491 327.64c0 13.79-11.21 25-25 25H46c-13.79 0-25-11.21-25-25V57.86c0-13.78 11.21-25 25-25h420c13.79 0 25 11.21 25 25zM466 46.86H46c-6.07 0-11 4.93-11 11v242.77c0 6.07 4.93 11 11 11h420c6.07 0 11-4.93 11-11V57.86c0-6.07-4.93-11-11-11zm1 253.77c0 .51-.49 1-1 1H46c-.51 0-1-.49-1-1V57.86c0-.51.49-1 1-1h420c.51 0 1 .49 1 1zm-314.18-91.55c35.92 0 65.14-29.22 65.14-65.14S188.74 78.8 152.82 78.8s-65.14 29.22-65.14 65.14 29.22 65.14 65.14 65.14zm-37.62-24.89c6.97-14.17 21.18-23.32 37.08-23.58 15.98.27 30.62 9.89 37.41 24.29-9.78 8.81-22.71 14.18-36.87 14.18-14.53 0-27.76-5.66-37.62-14.89zm37.62-95.39c30.41 0 55.14 24.74 55.14 55.14 0 12.42-4.13 23.9-11.09 33.13-9.05-15.82-26.07-26.18-44.52-26.45h-.15c-18.34.28-34.88 10.1-44.05 25.6-6.58-9.08-10.47-20.23-10.47-32.27 0-30.42 24.74-55.15 55.14-55.15zm-.55 58.8c14.71 0 26.69-11.97 26.69-26.69 0-14.71-11.97-26.68-26.69-26.68s-26.69 11.97-26.69 26.68c.01 14.72 11.98 26.69 26.69 26.69zm0-43.37c9.2 0 16.69 7.48 16.69 16.68s-7.48 16.69-16.69 16.69-16.69-7.49-16.69-16.69 7.49-16.68 16.69-16.68zm51.38 130.12H101.99c-8.27 0-15 6.73-15 15v15.34c0 8.27 6.73 15 15 15h101.65c8.27 0 15-6.73 15-15v-15.34c.01-8.27-6.72-15-14.99-15zm5 30.34c0 2.76-2.24 5-5 5H101.99c-2.76 0-5-2.24-5-5v-15.34c0-2.76 2.24-5 5-5h101.65c2.76 0 5 2.24 5 5v15.34zm203.9-106.04-10.85-.92c-1.24-.1-1.76-.94-1.97-1.42-.2-.49-.43-1.44.37-2.4l6.95-8.38c4.06-4.89 4.1-11.75.09-16.69a80.229 80.229 0 0 0-12.27-12.17c-4.97-3.96-11.83-3.87-16.68.23l-8.32 7.02c-.95.8-1.91.58-2.39.38-.49-.2-1.32-.72-1.44-1.95l-1.01-10.84c-.59-6.33-5.41-11.21-11.73-11.86a81.06 81.06 0 0 0-17.27.07c-6.32.7-11.11 5.62-11.65 11.96l-.92 10.85c-.1 1.24-.94 1.76-1.42 1.97-.49.2-1.44.43-2.4-.37l-8.38-6.95c-4.89-4.06-11.75-4.1-16.69-.09a80.229 80.229 0 0 0-12.17 12.27c-3.96 4.97-3.87 11.83.23 16.68l7.02 8.32c.8.95.58 1.91.38 2.39-.2.49-.72 1.32-1.95 1.44l-10.85 1.01c-6.33.59-11.21 5.42-11.86 11.74a81.06 81.06 0 0 0 .07 17.27c.7 6.32 5.62 11.11 11.96 11.65l10.85.92c1.24.1 1.76.93 1.97 1.42.2.49.43 1.44-.37 2.4l-6.95 8.38c-4.06 4.89-4.1 11.75-.09 16.69 3.63 4.48 7.76 8.57 12.27 12.17 4.97 3.96 11.83 3.87 16.68-.23l8.32-7.02c.95-.8 1.91-.58 2.39-.38.49.2 1.32.72 1.44 1.95l1.01 10.84c.59 6.33 5.41 11.21 11.73 11.86 2.76.29 5.54.43 8.32.43 2.99 0 5.98-.17 8.94-.5 6.32-.71 11.11-5.62 11.65-11.96l.92-10.85c.1-1.24.94-1.76 1.42-1.96.49-.21 1.44-.43 2.4.37l8.38 6.95c4.89 4.06 11.75 4.1 16.69.09 4.48-3.63 8.57-7.76 12.17-12.27 3.97-4.97 3.87-11.83-.22-16.68l-7.02-8.32c-.8-.95-.58-1.91-.39-2.39.2-.49.72-1.32 1.95-1.44l10.84-1.01c6.33-.59 11.21-5.41 11.86-11.73.6-5.73.57-11.54-.07-17.27-.68-6.35-5.6-11.14-11.94-11.67zm2.08 27.88c-.16 1.54-1.3 2.67-2.84 2.81l-10.84 1.01c-4.6.43-8.54 3.34-10.28 7.6s-.98 9.1 2 12.63l7.02 8.32c1 1.18 1.02 2.79.05 4a70.233 70.233 0 0 1-10.65 10.74c-1.2.98-2.81.97-4-.02l-8.38-6.95c-3.55-2.95-8.4-3.67-12.65-1.89s-7.13 5.74-7.52 10.34l-.92 10.85c-.13 1.54-1.25 2.69-2.79 2.86-5.02.56-10.11.58-15.13.06-1.54-.16-2.67-1.3-2.81-2.84l-1.01-10.84c-.43-4.6-3.34-8.54-7.6-10.28-1.51-.62-3.1-.92-4.68-.92-2.86 0-5.68 1-7.96 2.92l-8.32 7.02c-1.18 1-2.79 1.02-4 .05a70.298 70.298 0 0 1-10.74-10.66c-.97-1.2-.97-2.81.02-4l6.95-8.38c2.95-3.55 3.67-8.4 1.89-12.65s-5.74-7.13-10.34-7.52l-10.86-.92c-1.54-.13-2.69-1.25-2.86-2.79-.56-5.02-.58-10.11-.06-15.13.16-1.54 1.3-2.67 2.84-2.81l10.84-1.01c4.6-.43 8.54-3.34 10.28-7.6 1.75-4.26.98-9.1-2-12.63l-7.02-8.32c-1-1.18-1.02-2.79-.05-4 3.15-3.95 6.73-7.56 10.65-10.74 1.2-.98 2.81-.97 4 .02l8.38 6.95c3.55 2.95 8.4 3.67 12.65 1.89s7.13-5.74 7.52-10.34l.92-10.85c.13-1.54 1.25-2.69 2.79-2.86 5.02-.56 10.11-.58 15.13-.06 1.54.16 2.67 1.3 2.81 2.84l1.01 10.84c.43 4.6 3.34 8.54 7.6 10.28 4.26 1.75 9.1.98 12.63-2l8.32-7.02c1.18-1 2.79-1.02 4-.05 3.95 3.15 7.56 6.74 10.74 10.66.97 1.2.97 2.81-.02 4l-6.95 8.38c-2.95 3.55-3.67 8.4-1.9 12.65s5.74 7.13 10.34 7.52l10.86.92c1.54.13 2.69 1.25 2.86 2.79.58 5.02.6 10.11.08 15.13zm-69.65-39.79c-17.92 0-32.5 14.58-32.5 32.5s14.58 32.5 32.5 32.5 32.5-14.58 32.5-32.5-14.58-32.5-32.5-32.5zm0 55c-12.41 0-22.5-10.09-22.5-22.5s10.09-22.5 22.5-22.5 22.5 10.09 22.5 22.5-10.09 22.5-22.5 22.5z" fill="#faab19" opacity="1" data-original="#000000" class=""></path></g></svg>