<svg width="354" height="80" viewBox="0 0 354 80" fill="none" xmlns="http://www.w3.org/2000/svg">
<path d="M83.4169 31.8379V31.747C83.3959 31.3906 83.3261 31.0133 83.2633 30.6429C83.1725 30.2865 83.0887 29.9091 82.977 29.5388C82.8653 29.1405 82.7396 28.7631 82.6279 28.3857C82.6069 28.3648 82.6069 28.3438 82.6069 28.3159C82.4743 27.9595 82.3207 27.631 82.1671 27.2956C82.0135 26.9392 81.8598 26.5898 81.6643 26.2334C81.4898 25.9469 81.3362 25.6394 81.1407 25.3459C80.9871 25.0804 80.8125 24.8148 80.638 24.5493C80.617 24.5073 80.5961 24.4794 80.5751 24.4375C80.4215 24.2138 80.2679 23.9972 80.0933 23.7736C79.8769 23.4871 79.6535 23.2215 79.4161 22.956C79.3253 22.8442 79.2415 22.7533 79.1507 22.6695C78.9343 22.4039 78.6899 22.1593 78.4316 21.9147C78.4106 21.9147 78.4106 21.8938 78.3897 21.8728C78.257 21.74 78.1243 21.6282 77.9987 21.5164C77.866 21.3836 77.7333 21.2718 77.6077 21.188C77.475 21.0552 77.3214 20.9434 77.1957 20.8595C76.8675 20.615 76.5394 20.3704 76.1903 20.1537C75.7993 19.8882 75.4013 19.6436 74.9893 19.42C74.5494 19.1964 74.1375 18.9797 73.6976 18.798C73.4811 18.6862 73.2577 18.6024 73.0203 18.5115C73.0203 18.5115 72.9994 18.5115 72.9784 18.4906C72.7829 18.4207 72.5665 18.3578 72.343 18.2879C72.1685 18.225 71.973 18.1551 71.7775 18.1132C71.5122 18.0224 71.2329 17.9595 70.9675 17.8896C70.8768 17.8686 70.772 17.8477 70.6603 17.8197H70.6394C70.402 17.7498 70.1367 17.7079 69.8993 17.6869C69.8574 17.666 69.7666 17.666 69.7038 17.666C69.6409 17.645 69.5501 17.645 69.4873 17.645C69.3965 17.624 69.3127 17.6031 69.201 17.6031C68.9148 17.5611 68.6145 17.5402 68.3282 17.5122H68.2375C68.1746 17.5122 68.1048 17.4913 68.042 17.5122L68.021 17.4913C68.042 17.4214 68.021 17.3795 68.021 17.3166C68.021 17.072 68.0001 16.8274 67.9582 16.5898C67.9582 16.4151 67.9372 16.2334 67.8953 16.0587C67.8953 15.9958 67.8953 15.905 67.8744 15.8351C67.8535 15.7652 67.8535 15.6813 67.8535 15.6324C67.8325 15.5625 67.8116 15.4996 67.8116 15.4368C67.7906 15.2621 67.7487 15.0594 67.7208 14.8847V14.8637C67.6789 14.6681 67.658 14.4864 67.6091 14.3117C67.5462 14.116 67.4974 13.9133 67.4345 13.7386C67.4345 13.6757 67.4136 13.5849 67.3926 13.515C67.3926 13.4941 67.3717 13.4731 67.3717 13.4451C67.3507 13.4032 67.3507 13.3543 67.3298 13.3124C67.239 13.0259 67.1552 12.7603 67.0435 12.5157C67.0435 12.4948 67.0226 12.4458 67.0016 12.4249C66.8899 12.1174 66.7642 11.8029 66.6316 11.5164C66.5897 11.3836 66.5408 11.2509 66.478 11.1181L66.457 11.0971C66.457 11.0971 66.4361 11.0552 66.4151 11.0063C66.2825 10.7407 66.1498 10.4752 66.0032 10.2096C65.9124 10.0559 65.8286 9.90216 65.7378 9.74842C65.5004 9.3501 65.2351 8.95178 64.9488 8.55345C64.6626 8.13417 64.3344 7.73584 64.0062 7.35849C63.7898 7.1139 63.5454 6.84835 63.308 6.60377C63.1125 6.4081 62.8961 6.18448 62.6517 5.98183C62.1909 5.56254 61.7091 5.16422 61.1854 4.80782C61.0318 4.69601 60.8991 4.60517 60.7735 4.52131L60.7525 4.50035C60.6198 4.43046 60.4872 4.34661 60.3615 4.27673C60.3406 4.25576 60.2987 4.2348 60.2707 4.2348C60.18 4.19287 60.1171 4.12299 60.0543 4.08106C60.0124 4.03913 59.9426 3.99021 59.8797 3.96925C59.789 3.92732 59.7261 3.8784 59.6423 3.83647C59.5097 3.74563 59.4259 3.7037 59.3351 3.66177C59.0279 3.48707 58.0713 3.03983 57.9177 2.97694C57.7222 2.90705 57.5267 2.8232 57.3312 2.75332C57.0659 2.64151 56.7866 2.55765 56.4794 2.4668C56.214 2.39692 55.9557 2.33403 55.6904 2.26415C55.6485 2.26415 55.6275 2.24318 55.5787 2.24318C55.5368 2.22222 55.4669 2.20125 55.4251 2.20125C55.2086 2.13137 54.9642 2.08944 54.7268 2.04752C54.7059 2.02655 54.6849 2.02655 54.664 2.02655C54.4266 1.98462 54.2032 1.95667 53.9867 1.93571H53.9239C53.2047 1.8239 52.5065 1.78197 51.7803 1.78197C51.0542 1.78197 50.3839 1.8239 49.7066 1.91474C49.6158 1.93571 49.532 1.93571 49.4413 1.95667C48.743 2.04752 48.0448 2.20125 47.3885 2.39692C47.0813 2.48777 46.774 2.57162 46.4738 2.68343C46.013 2.83717 45.5312 3.03983 45.0983 3.25646C44.8609 3.34731 44.6165 3.45213 44.3791 3.5849C44.2046 3.67575 44.03 3.7596 43.8555 3.87141C44.4699 4.31167 45.0774 4.8218 45.622 5.3529C45.7546 5.46471 45.8873 5.59748 46.013 5.73025C49.2877 9.04961 51.103 13.4731 51.103 18.1412V20.8875H67.3577C67.5951 20.8875 67.8395 20.9294 68.0769 20.9574C71.8333 21.1111 75.3105 22.4808 78.1034 24.696C78.5433 25.1852 78.9133 25.6883 79.2415 26.2194C79.6535 26.8623 79.9816 27.5052 80.2679 28.1412C80.3587 28.3368 80.4425 28.5395 80.5053 28.7631V28.7841C80.5262 28.826 80.5472 28.8539 80.5472 28.8959C79.8909 27.9455 79.1298 27.079 78.278 26.3103C75.5479 23.8085 71.966 22.2362 68.0769 22.0615C67.8395 22.0405 67.5951 22.0196 67.3577 22.0196H51.103V25.4927H67.3577C67.5951 25.4927 67.8395 25.5346 68.0769 25.5346C73.4532 25.7582 78.3408 28.4766 81.399 32.7254V32.7463C81.4409 33.1237 81.4619 33.5639 81.4619 33.9623C81.4619 34.2278 81.4619 34.4514 81.42 34.717V34.8078C78.669 30.0699 73.6627 26.9322 68.0699 26.6667C67.8325 26.6667 67.5881 26.6247 67.3507 26.6247H51.0961V30.0769H67.3507C67.5881 30.0769 67.8325 30.0978 68.0699 30.1188C73.2717 30.3424 78.0545 32.8861 81.1337 36.9741C81.0709 37.3934 80.9591 37.7917 80.8265 38.1901C80.8055 38.26 80.7846 38.3228 80.7636 38.3648C77.9009 34.1579 73.2507 31.5094 68.1188 31.2439H68.0769C67.8395 31.2439 67.5951 31.202 67.3577 31.202H51.103V34.6541H67.4415C67.6579 34.6541 67.9023 34.6541 68.1188 34.675C72.7061 34.8707 76.9653 36.8623 80.0235 40.2306C80.5681 40.8036 81.0499 41.4046 81.4898 42.0475C81.7272 41.6282 81.9506 41.2089 82.1252 40.7617C82.3416 40.3214 82.5162 39.8323 82.6907 39.3711C82.8024 39.0636 82.8862 38.798 82.977 38.4836V38.4626C83.1725 37.7778 83.3261 37.072 83.4169 36.3382V36.3173C83.4378 36.2474 83.4378 36.2054 83.4378 36.1426V36.1006C83.5495 35.4158 83.5914 34.682 83.5914 33.9762C83.5914 33.2704 83.5495 32.5576 83.4378 31.8309L83.4169 31.8379ZM54.4475 17.4843C54.273 13.3473 52.6112 9.49685 49.7275 6.55485C49.0084 5.84905 48.2403 5.20615 47.4374 4.63312C47.4793 4.61216 47.5281 4.61216 47.57 4.59119C47.982 4.45842 48.4219 4.32564 48.8338 4.28371C49.4203 4.72397 49.9719 5.2341 50.5165 5.7652C53.6166 8.90985 55.3901 13.0468 55.5647 17.4913H54.4475V17.4843ZM58.993 17.4843C58.7975 13.3473 57.1566 9.49685 54.252 6.55485C53.2675 5.56254 52.1574 4.69601 50.9774 3.99021H51.0193C51.2567 3.94828 51.501 3.94828 51.7594 3.94828C52.1713 3.94828 52.5903 3.96925 52.9813 4.01817C53.7004 4.5283 54.3987 5.12229 55.034 5.7652C58.1551 8.93081 59.9077 13.0678 60.1032 17.4913H58.986L58.993 17.4843ZM63.5175 17.4843C63.322 13.3473 61.6811 9.49685 58.7765 6.55485C58.19 5.96086 57.5546 5.42977 56.8983 4.91963C57.1148 4.98951 57.2893 5.07337 57.5127 5.16422C58.1481 5.45073 58.7556 5.78616 59.4119 6.20545C59.9565 6.56184 60.5012 6.96016 61.0039 7.44234C63.2312 10.3214 64.474 13.8155 64.6277 17.4843H63.5105H63.5175Z" fill="#005485"/>
<path d="M37.6066 1.96366H37.5158C37.1667 1.98462 36.7966 2.0545 36.4266 2.1174C36.0775 2.20824 35.7074 2.2921 35.3374 2.40391C34.9464 2.51572 34.5763 2.64849 34.1993 2.7603C34.1783 2.78127 34.1574 2.78127 34.1364 2.78127C33.7873 2.91404 33.4591 3.06778 33.131 3.22152C32.7819 3.37526 32.4327 3.529 32.0836 3.73165C31.7974 3.90636 31.4971 4.06009 31.2108 4.26275C30.9455 4.41649 30.6872 4.59119 30.4219 4.77288C30.38 4.79385 30.359 4.81481 30.3101 4.84276C30.0937 4.9965 29.8703 5.15024 29.6538 5.33193C29.3675 5.55555 29.1092 5.77218 28.8439 6.01677C28.7322 6.10761 28.6484 6.19147 28.5576 6.28232C28.2923 6.50594 28.0549 6.74353 27.8175 7.00908C27.8175 7.03005 27.7965 7.03005 27.7756 7.05101C27.6429 7.18378 27.5382 7.31656 27.4265 7.44933C27.2938 7.58211 27.1891 7.71488 27.0983 7.84766C26.9656 7.98043 26.8609 8.13417 26.7701 8.26694C26.5327 8.59539 26.2884 8.93081 26.0719 9.28721C25.8066 9.68553 25.5692 10.0839 25.3527 10.5031C25.1363 10.9434 24.9129 11.3627 24.7383 11.8099C24.6266 12.0335 24.5428 12.2502 24.452 12.4948C24.452 12.4948 24.452 12.5157 24.4311 12.5367C24.3682 12.7393 24.2984 12.956 24.2356 13.1796C24.1727 13.3543 24.1029 13.557 24.061 13.7526C23.9772 14.0182 23.9074 14.3047 23.8446 14.5702C23.8236 14.6611 23.8027 14.7729 23.7817 14.8777V14.8987C23.7189 15.1433 23.67 15.4088 23.6491 15.6534C23.6281 15.6953 23.6281 15.7862 23.6281 15.856C23.6072 15.9259 23.6072 16.0098 23.6072 16.0797C23.5862 16.1705 23.5653 16.2544 23.5653 16.3662C23.5234 16.6527 23.5024 16.9602 23.4815 17.2537V17.3445C23.4815 17.4144 23.4606 17.4773 23.4815 17.5472L23.4606 17.5681C23.3977 17.5472 23.3488 17.5681 23.286 17.5681C23.0486 17.5681 22.8042 17.5891 22.5668 17.631C22.3923 17.631 22.2177 17.652 22.0432 17.7009C21.9803 17.7009 21.8895 17.7009 21.8267 17.7219C21.7639 17.7428 21.6731 17.7428 21.6312 17.7428C21.5684 17.7638 21.4985 17.7848 21.4357 17.7848C21.2611 17.8057 21.0656 17.8546 20.8911 17.8756H20.8701C20.6746 17.9175 20.5001 17.9455 20.3255 17.9874C20.13 18.0503 19.9345 18.0992 19.76 18.1621C19.6971 18.1621 19.6064 18.1831 19.5435 18.2041C19.5226 18.2041 19.5016 18.225 19.4807 18.225C19.4388 18.246 19.3899 18.246 19.348 18.2669C19.0617 18.3578 18.8034 18.4416 18.559 18.5535C18.5381 18.5535 18.4962 18.5744 18.4682 18.5954C18.161 18.7072 17.8538 18.84 17.5745 18.9727C17.4419 19.0147 17.3092 19.0636 17.1835 19.1265L17.1626 19.1474C17.1626 19.1474 17.1207 19.1684 17.0788 19.1894C16.8135 19.3221 16.5551 19.4549 16.2898 19.6087C16.1362 19.6995 15.9826 19.7834 15.829 19.8742C15.4379 20.1188 15.04 20.3843 14.649 20.6709C14.237 20.9574 13.839 21.2928 13.469 21.6212C13.2316 21.8449 12.9662 22.0825 12.7288 22.327C12.5333 22.5297 12.3169 22.7463 12.1144 22.9909C11.7024 23.4521 11.3045 23.9413 10.9553 24.4724C10.8436 24.6261 10.7598 24.7589 10.6691 24.8917L10.6481 24.9126C10.5853 25.0454 10.4945 25.1782 10.4317 25.311C10.4107 25.3319 10.3898 25.3739 10.3898 25.4018C10.3479 25.4927 10.2781 25.5555 10.2362 25.6254C10.1943 25.6674 10.1454 25.7372 10.1245 25.8001C10.0826 25.891 10.0337 25.9539 9.9918 26.0447C9.90103 26.1775 9.85913 26.2683 9.81724 26.3522C9.64268 26.6597 9.2028 27.638 9.13996 27.7917C9.07712 27.9874 8.98635 28.1901 8.92351 28.3857C8.8118 28.6513 8.72801 28.9378 8.63724 29.2453C8.5744 29.5108 8.50458 29.7764 8.44174 30.0419C8.44174 30.0839 8.42079 30.1118 8.42079 30.1537C8.39984 30.1957 8.3789 30.2655 8.3789 30.3075C8.31606 30.5311 8.26718 30.7687 8.22529 31.0133C8.20434 31.0342 8.20434 31.0552 8.20434 31.0832C8.16245 31.3277 8.1415 31.5444 8.11357 31.768V31.8309C8.00185 32.5576 7.95996 33.2704 7.95996 33.9972C7.95996 34.703 8.00185 35.4158 8.09262 36.1006C8.11357 36.1915 8.11357 36.2753 8.13452 36.3662C8.22529 37.072 8.37191 37.7848 8.5744 38.4486C8.66517 38.7561 8.74896 39.0706 8.86067 39.3781C9.01428 39.8393 9.20978 40.3284 9.42623 40.7687C9.51002 41.0133 9.62174 41.2579 9.7544 41.4955C9.84517 41.6702 9.92896 41.8518 10.0407 42.0266C10.4806 41.4046 10.9833 40.7897 11.5069 40.2376C11.6187 40.1048 11.7443 39.972 11.877 39.8393C15.1517 36.5199 19.5226 34.682 24.1308 34.682H26.84V18.218C26.84 17.9734 26.8819 17.7289 26.9028 17.4913C27.0564 13.6827 28.411 10.1677 30.5964 7.33752C31.0782 6.89727 31.5809 6.51991 32.1046 6.18448C32.74 5.7652 33.3684 5.42977 34.0037 5.14325C34.1993 5.05241 34.3948 4.96855 34.6182 4.89867H34.6391C34.681 4.8777 34.702 4.85674 34.7509 4.85674C33.8082 5.52061 32.9564 6.29629 32.1953 7.15583C29.7236 9.92313 28.1736 13.55 27.999 17.4913C27.9781 17.7358 27.9571 17.9804 27.9571 18.218V34.682H31.3854V18.218C31.3854 17.9734 31.4273 17.7289 31.4273 17.4913C31.6437 12.0475 34.3319 7.09294 38.5282 3.9972H38.5492C38.9192 3.95527 39.3591 3.92732 39.7501 3.92732C40.0155 3.92732 40.2319 3.92732 40.4903 3.96925H40.581C35.9029 6.75751 32.8028 11.8239 32.5445 17.4843C32.5445 17.7289 32.5026 17.9734 32.5026 18.211V34.675H35.9099V18.211C35.9099 17.9665 35.9309 17.7219 35.9518 17.4843C36.1682 12.2152 38.6819 7.37246 42.7246 4.25576C43.1365 4.31866 43.5345 4.43047 43.9255 4.56324C43.9884 4.5842 44.0582 4.60517 44.1001 4.63312C39.9526 7.53319 37.3273 12.2432 37.069 17.4423V17.4843C37.069 17.7289 37.0271 17.9734 37.0271 18.211V34.675H40.4344V18.1272C40.4344 17.9036 40.4344 17.666 40.4553 17.4423C40.6508 12.7952 42.6198 8.48357 45.9364 5.38784C46.502 4.83578 47.0955 4.34661 47.7308 3.90636C47.3189 3.66177 46.9 3.44514 46.4671 3.26345C46.0272 3.03983 45.5524 2.86513 45.0916 2.69042C44.7843 2.57861 44.526 2.49476 44.2188 2.40391H44.1978C43.5206 2.20824 42.8223 2.04752 42.1032 1.96366H42.0822C42.0194 1.94269 41.9705 1.94269 41.9077 1.94269H41.8658C41.1885 1.83088 40.4693 1.78896 39.7711 1.78896C39.0519 1.78896 38.3746 1.83088 37.6555 1.94269L37.6066 1.96366ZM23.4256 31.2998C19.341 31.4745 15.5427 33.1586 12.6311 36.0797C11.9329 36.8064 11.2975 37.5821 10.7319 38.3997C10.711 38.3578 10.711 38.3089 10.69 38.2669C10.5574 37.8477 10.4247 37.4074 10.3828 36.9811C10.8227 36.3871 11.3254 35.8281 11.8491 35.276C14.9492 32.1314 19.0338 30.3424 23.4256 30.1677V31.2928V31.2998ZM23.4256 26.6946C19.341 26.8903 15.5427 28.5535 12.6311 31.4955C11.6466 32.4878 10.7948 33.6198 10.0965 34.8148V34.7729C10.0546 34.5283 10.0546 34.2837 10.0546 34.0182C10.0546 33.5989 10.0756 33.1796 10.1175 32.7813C10.6202 32.0545 11.2067 31.3417 11.8421 30.6988C14.9632 27.5332 19.0478 25.7652 23.4187 25.5625V26.6876L23.4256 26.6946ZM23.4256 22.1174C19.341 22.3131 15.5427 23.9762 12.6311 26.9182C12.0446 27.5122 11.5139 28.1551 11.0112 28.819C11.074 28.5954 11.1648 28.4207 11.2486 28.1971C11.5349 27.5542 11.863 26.9392 12.275 26.2753C12.6241 25.7233 13.0151 25.1712 13.4969 24.6611C16.3387 22.4039 19.7879 21.146 23.4117 20.9853V22.1104L23.4256 22.1174Z" fill="#005485"/>
<path d="M8.09252 48.1551V48.246C8.11347 48.6024 8.18329 48.9797 8.24613 49.3501C8.3369 49.7065 8.42069 50.0839 8.53241 50.4542C8.64412 50.8526 8.7698 51.2299 8.88152 51.6073C8.90247 51.6282 8.90247 51.6492 8.90247 51.6771C9.03513 52.0335 9.18874 52.362 9.34235 52.6974C9.49596 53.0538 9.64957 53.4032 9.84507 53.7596C10.0196 54.0461 10.1732 54.3536 10.3687 54.6471C10.5223 54.9126 10.6969 55.1782 10.8715 55.4437C10.8924 55.4857 10.9134 55.5136 10.9343 55.5556C11.0879 55.7792 11.2415 55.9958 11.4161 56.2194C11.6325 56.5059 11.856 56.7715 12.0934 57.037C12.1841 57.1488 12.2679 57.2397 12.3587 57.3236C12.5751 57.5891 12.8195 57.8337 13.0778 58.0783C13.0988 58.0783 13.0988 58.0992 13.1197 58.1202C13.2524 58.253 13.3851 58.3648 13.5107 58.4766C13.6434 58.6094 13.7761 58.7212 13.9018 58.805C14.0344 58.9378 14.188 59.0496 14.3137 59.1335C14.6419 59.3781 14.97 59.6226 15.3192 59.8393C15.7102 60.1048 16.1081 60.3494 16.5201 60.573C16.96 60.7966 17.3719 61.0133 17.8118 61.195C18.0283 61.3068 18.2517 61.3906 18.4891 61.4815C18.4891 61.4815 18.51 61.4815 18.531 61.5024C18.7265 61.5723 18.9429 61.6352 19.1664 61.7051C19.3409 61.768 19.5364 61.8379 19.7319 61.8798C19.9973 61.9707 20.2765 62.0335 20.5419 62.1034C20.6326 62.1244 20.7374 62.1454 20.8491 62.1733H20.87C21.1074 62.2432 21.3728 62.2851 21.6102 62.3061C21.6521 62.327 21.7428 62.327 21.8057 62.327C21.8685 62.348 21.9593 62.348 22.0221 62.348C22.1129 62.369 22.1967 62.3899 22.3084 62.3899C22.5947 62.4319 22.8949 62.4528 23.1812 62.4808H23.2719C23.3348 62.4808 23.4046 62.5018 23.4674 62.4808L23.4884 62.5017C23.4674 62.5716 23.4884 62.6136 23.4884 62.6765C23.4884 62.921 23.5093 63.1656 23.5512 63.4032C23.5512 63.5779 23.5722 63.7596 23.6141 63.9343C23.6141 63.9972 23.6141 64.088 23.635 64.1579C23.656 64.2278 23.656 64.3117 23.656 64.3606C23.6769 64.4305 23.6978 64.4934 23.6978 64.5563C23.7188 64.731 23.7607 64.9336 23.7886 65.1083V65.1293C23.8305 65.3249 23.8515 65.5066 23.9003 65.6813C23.9632 65.877 24.0121 66.0797 24.0749 66.2544C24.0749 66.3173 24.0958 66.4081 24.1168 66.478C24.1168 66.499 24.1377 66.5199 24.1377 66.5479C24.1587 66.5898 24.1587 66.6387 24.1796 66.6806C24.2704 66.9672 24.3542 67.2327 24.4659 67.4773C24.4659 67.4983 24.4868 67.5472 24.5078 67.5681C24.6195 67.8756 24.7452 68.1901 24.8779 68.4766C24.9197 68.6094 24.9686 68.7421 25.0315 68.8749L25.0524 68.8959C25.0524 68.8959 25.0734 68.9378 25.0943 68.9867C25.227 69.2523 25.3596 69.5178 25.5063 69.7834C25.597 69.9371 25.6808 70.0908 25.7716 70.2446C26.009 70.6429 26.2743 71.0412 26.5606 71.4396C26.8468 71.8588 27.175 72.2572 27.5032 72.6345C27.7196 72.8791 27.964 73.1447 28.2014 73.3892C28.3969 73.5849 28.6134 73.8085 28.8577 74.0112C29.3186 74.4305 29.8003 74.8288 30.324 75.1852C30.4776 75.297 30.6103 75.3878 30.736 75.4717L30.7569 75.4927C30.8896 75.5625 31.0222 75.6464 31.1479 75.7163C31.1689 75.7372 31.2108 75.7582 31.2387 75.7582C31.3294 75.8001 31.3923 75.87 31.4551 75.9119C31.497 75.9539 31.5668 76.0028 31.6297 76.0238C31.7205 76.0657 31.7833 76.1146 31.8671 76.1565C31.9997 76.2474 32.0835 76.2893 32.1743 76.3312C32.4815 76.5059 33.4381 76.9532 33.5917 77.0161C33.7872 77.086 33.9827 77.1698 34.1782 77.2397C34.4435 77.3515 34.7228 77.4354 35.03 77.5262C35.2954 77.5961 35.5537 77.659 35.819 77.7289C35.8609 77.7289 35.8819 77.7498 35.9307 77.7498C35.9726 77.7708 36.0425 77.7918 36.0844 77.7918C36.3008 77.8616 36.5452 77.9036 36.7826 77.9455C36.8035 77.9665 36.8245 77.9665 36.8454 77.9665C37.0828 78.0084 37.3063 78.0363 37.5227 78.0573H37.5855C38.3047 78.1691 39.0029 78.211 39.7291 78.211C40.4552 78.211 41.1255 78.1691 41.8028 78.0783C41.8936 78.0573 41.9774 78.0573 42.0681 78.0363C42.7664 77.9455 43.4646 77.7918 44.1209 77.5961C44.4281 77.5052 44.7354 77.4214 45.0356 77.3096C45.4964 77.1558 45.9782 76.9532 46.4111 76.7365C46.6485 76.6457 46.8929 76.5409 47.1303 76.4081C47.3048 76.3173 47.4794 76.2334 47.6539 76.1216C47.0395 75.6813 46.4321 75.1712 45.8874 74.6401C45.7548 74.5283 45.6221 74.3955 45.4964 74.2628C42.2218 70.9434 40.4064 66.5199 40.4064 61.8519V59.1055H24.1517C23.9143 59.1055 23.6699 59.0636 23.4325 59.0356C19.6761 58.8819 16.1989 57.5122 13.406 55.297C12.9661 54.8078 12.5961 54.3047 12.2679 53.7736C11.856 53.1307 11.5278 52.4878 11.2415 51.8519C11.1507 51.6562 11.067 51.4535 11.0041 51.2299V51.2089C10.9832 51.167 10.9622 51.1391 10.9622 51.0971C11.6186 52.0475 12.3796 52.914 13.2315 53.6827C15.9615 56.1845 19.5434 57.7568 23.4325 57.9315C23.6699 57.9525 23.9143 57.9734 24.1517 57.9734H40.4064V54.5003H24.1517C23.9143 54.5003 23.6699 54.4584 23.4325 54.4584C18.0562 54.2348 13.1686 51.5164 10.1104 47.2676V47.2467C10.0685 46.8693 10.0476 46.4291 10.0476 46.0308C10.0476 45.7652 10.0476 45.5416 10.0894 45.276V45.1852C12.8405 49.9231 17.8467 53.0608 23.4395 53.3263C23.6769 53.3263 23.9213 53.3683 24.1587 53.3683H40.4134V49.9161H24.1587C23.9213 49.9161 23.6769 49.8952 23.4395 49.8742C18.2377 49.6506 13.4549 47.1069 10.3757 43.0189C10.4386 42.5996 10.5503 42.2013 10.6829 41.8029C10.7039 41.7331 10.7248 41.6702 10.7458 41.6282C13.6085 45.8351 18.2587 48.4836 23.3906 48.7491H23.4325C23.6699 48.7491 23.9143 48.7911 24.1517 48.7911H40.4064V45.3389H24.0679C23.8515 45.3389 23.6071 45.3389 23.3906 45.318C18.8033 45.1223 14.5441 43.1307 11.4859 39.7624C10.9413 39.1894 10.4595 38.5884 10.0196 37.9455C9.78223 38.3648 9.5588 38.7841 9.38424 39.2313C9.16779 39.6716 8.99323 40.1607 8.81868 40.6219C8.70696 40.9294 8.62318 41.195 8.53241 41.5094V41.5304C8.3369 42.2152 8.18329 42.921 8.09252 43.6548V43.6758C8.07158 43.7456 8.07158 43.7876 8.07158 43.8505V43.8924C7.95986 44.5772 7.91797 45.311 7.91797 46.0168C7.91797 46.7226 7.95986 47.4354 8.07158 48.1621L8.09252 48.1551ZM37.0549 62.5157C37.2294 66.6527 38.8912 70.5031 41.7749 73.4451C42.4941 74.1509 43.2621 74.7938 44.0651 75.3669C44.0232 75.3878 43.9743 75.3878 43.9324 75.4088C43.5205 75.5416 43.0806 75.6744 42.6686 75.7163C42.0821 75.276 41.5305 74.7659 40.9859 74.2348C37.8858 71.0901 36.1123 66.9532 35.9377 62.5087H37.0549V62.5157ZM32.5164 62.5157C32.7119 66.6527 34.3528 70.5031 37.2574 73.4451C38.2419 74.4375 39.3521 75.304 40.5321 76.0098H40.4902C40.2528 76.0517 40.0084 76.0517 39.75 76.0517C39.3381 76.0517 38.9192 76.0308 38.5281 75.9818C37.809 75.4717 37.1108 74.8777 36.4754 74.2348C33.3543 71.0692 31.6018 66.9322 31.4063 62.5087H32.5234L32.5164 62.5157ZM27.9919 62.5157C28.1874 66.6527 29.8283 70.5031 32.7329 73.4451C33.3194 74.0391 33.9548 74.5702 34.6111 75.0804C34.3947 75.0105 34.2201 74.9266 33.9967 74.8358C33.3613 74.5493 32.7538 74.2138 32.0975 73.7945C31.5529 73.4382 31.0083 73.0398 30.5055 72.5577C28.2782 69.6785 27.0354 66.1845 26.8818 62.5157H27.9989H27.9919Z" fill="#005485"/>
<path d="M53.9026 78.0363H53.9934C54.3425 78.0154 54.7125 77.9455 55.0826 77.8826C55.4317 77.7918 55.8017 77.7079 56.1718 77.5961C56.5628 77.4843 56.9329 77.3515 57.3099 77.2397C57.3309 77.2187 57.3518 77.2187 57.3728 77.2187C57.7219 77.086 58.05 76.9322 58.3782 76.7785C58.7273 76.6247 59.0764 76.471 59.4255 76.2683C59.7118 76.0936 60.012 75.9399 60.2983 75.7372C60.5636 75.5835 60.822 75.4088 61.0873 75.2271C61.1292 75.2062 61.1502 75.1852 61.199 75.1572C61.4155 75.0035 61.6389 74.8498 61.8554 74.6681C62.1416 74.4444 62.4 74.2278 62.6653 73.9832C62.777 73.8924 62.8608 73.8085 62.9516 73.7177C63.2169 73.4941 63.4543 73.2565 63.6917 72.9909C63.6917 72.97 63.7126 72.97 63.7336 72.949C63.8662 72.8162 63.971 72.6834 64.0827 72.5507C64.2154 72.4179 64.3201 72.2851 64.4109 72.1523C64.5435 72.0196 64.6483 71.8658 64.739 71.7331C64.9764 71.4046 65.2208 71.0692 65.4373 70.7128C65.7026 70.3145 65.94 69.9161 66.1564 69.4969C66.3729 69.0566 66.5963 68.6373 66.7709 68.1901C66.8826 67.9665 66.9664 67.7498 67.0571 67.5052C67.0571 67.5052 67.0571 67.4843 67.0781 67.4633C67.1409 67.2607 67.2107 67.044 67.2736 66.8204C67.3364 66.6457 67.4062 66.4431 67.4481 66.2474C67.5319 65.9818 67.6018 65.6953 67.6646 65.4298C67.6855 65.3389 67.7065 65.2271 67.7274 65.1223V65.1013C67.7903 64.8568 67.8391 64.5912 67.8601 64.3466C67.881 64.3047 67.881 64.2138 67.881 64.144C67.902 64.0741 67.902 63.9902 67.902 63.9203C67.9229 63.8295 67.9439 63.7456 67.9439 63.6338C67.9858 63.3473 68.0067 63.0398 68.0277 62.7463V62.6555C68.0277 62.5856 68.0486 62.5227 68.0277 62.4528L68.0486 62.4319C68.1115 62.4528 68.1603 62.4319 68.2232 62.4319C68.4606 62.4319 68.7049 62.4109 68.9423 62.369C69.1169 62.369 69.2915 62.348 69.466 62.2991C69.5289 62.2991 69.6196 62.2991 69.6825 62.2781C69.7453 62.2572 69.8361 62.2572 69.878 62.2572C69.9408 62.2362 70.0106 62.2152 70.0735 62.2152C70.248 62.1943 70.4435 62.1454 70.6181 62.1244H70.639C70.8345 62.0825 71.0091 62.0545 71.1836 62.0126C71.3791 61.9497 71.5747 61.9008 71.7492 61.8379C71.812 61.8379 71.9028 61.8169 71.9657 61.796C71.9866 61.796 72.0076 61.775 72.0285 61.775C72.0704 61.754 72.1193 61.754 72.1612 61.7331C72.4474 61.6422 72.7058 61.5584 72.9502 61.4465C72.9711 61.4465 73.013 61.4256 73.0409 61.4046C73.3481 61.2928 73.6554 61.16 73.9347 61.0273C74.0673 60.9853 74.2 60.9364 74.3257 60.8735L74.3466 60.8526C74.3466 60.8526 74.3885 60.8316 74.4304 60.8106C74.6957 60.6778 74.9541 60.5451 75.2194 60.3913C75.373 60.3005 75.5266 60.2166 75.6802 60.1258C76.0712 59.8812 76.4692 59.6157 76.8602 59.3291C77.2722 59.0426 77.6702 58.7072 78.0402 58.3788C78.2776 58.1551 78.5429 57.9175 78.7803 57.673C78.9758 57.4703 79.1923 57.2537 79.3948 57.0091C79.8067 56.5479 80.2047 56.0587 80.5538 55.5276C80.6655 55.3739 80.7493 55.2411 80.8401 55.1083L80.861 55.0874C80.9239 54.9546 81.0147 54.8218 81.0775 54.689C81.0984 54.6681 81.1194 54.6261 81.1194 54.5982C81.1613 54.5073 81.2311 54.4444 81.273 54.3746C81.3149 54.3326 81.3638 54.2628 81.3847 54.1999C81.4266 54.109 81.4755 54.0461 81.5174 53.9553C81.6081 53.8225 81.65 53.7317 81.6919 53.6478C81.8665 53.3403 82.3064 52.362 82.3692 52.2082C82.432 52.0126 82.5228 51.8099 82.5857 51.6143C82.6974 51.3487 82.7812 51.0622 82.8719 50.7547C82.9348 50.4892 83.0046 50.2236 83.0674 49.9581C83.0674 49.9161 83.0884 49.8882 83.0884 49.8463C83.1093 49.8043 83.1303 49.7345 83.1303 49.6925C83.1931 49.4689 83.242 49.2313 83.2839 48.9867C83.3048 48.9658 83.3048 48.9448 83.3048 48.9168C83.3467 48.6723 83.3677 48.4556 83.3956 48.232V48.1691C83.5073 47.4424 83.5492 46.7296 83.5492 46.0028C83.5492 45.297 83.5073 44.5842 83.4165 43.8994C83.3956 43.8085 83.3956 43.7247 83.3747 43.6338C83.2839 42.928 83.1373 42.2152 82.9348 41.5514C82.844 41.2439 82.7602 40.9294 82.6485 40.6219C82.4949 40.1607 82.2994 39.6716 82.0829 39.2313C81.9991 38.9867 81.8874 38.7421 81.7548 38.5045C81.664 38.3298 81.5802 38.1482 81.4685 37.9734C81.0286 38.5954 80.5259 39.2103 80.0022 39.7624C79.8905 39.8952 79.7648 40.028 79.6322 40.1607C76.3575 43.4801 71.9866 45.318 67.3783 45.318H64.6692V61.782C64.6692 62.0266 64.6273 62.2711 64.6064 62.5087C64.4528 66.3173 63.0982 69.8323 60.9128 72.6625C60.431 73.1027 59.9283 73.4801 59.4046 73.8155C58.7692 74.2348 58.1408 74.5702 57.5054 74.8568C57.3099 74.9476 57.1144 75.0315 56.891 75.1013H56.87C56.8281 75.1223 56.8072 75.1433 56.7583 75.1433C57.7009 74.4794 58.5528 73.7037 59.3138 72.8442C61.7855 70.0769 63.3356 66.45 63.5102 62.5087C63.5311 62.2642 63.552 62.0196 63.552 61.782V45.318H60.1238V61.782C60.1238 62.0266 60.0819 62.2711 60.0819 62.5087C59.8654 67.9525 57.1773 72.9071 52.9809 76.0028H52.96C52.5899 76.0447 52.15 76.0727 51.759 76.0727C51.4937 76.0727 51.2773 76.0727 51.0189 76.0308H50.9281C55.6062 73.2425 58.7064 68.1761 58.9647 62.5157C58.9647 62.2711 59.0066 62.0266 59.0066 61.789V45.325H55.5993V61.789C55.5993 62.0335 55.5783 62.2781 55.5574 62.5157C55.3409 67.7848 52.8273 72.6275 48.7846 75.7442C48.3726 75.6813 47.9747 75.5695 47.5836 75.4368C47.5208 75.4158 47.451 75.3948 47.4091 75.3669C51.5565 72.4668 54.1819 67.7568 54.4402 62.5577V62.5157C54.4402 62.2711 54.4821 62.0266 54.4821 61.789V45.325H51.0748V61.8728C51.0748 62.0964 51.0748 62.334 51.0538 62.5577C50.8583 67.2048 48.8893 71.5164 45.5728 74.6122C45.0072 75.1642 44.4137 75.6534 43.7783 76.0936C44.1903 76.3382 44.6092 76.5549 45.0421 76.7365C45.482 76.9602 45.9568 77.1349 46.4176 77.3096C46.7248 77.4214 46.9832 77.5052 47.2904 77.5961H47.3113C47.9886 77.7918 48.6868 77.9525 49.406 78.0363H49.427C49.4898 78.0573 49.5387 78.0573 49.6015 78.0573H49.6434C50.3207 78.1691 51.0399 78.211 51.7381 78.211C52.4573 78.211 53.1345 78.1691 53.8537 78.0573L53.9026 78.0363ZM68.0835 48.7002C72.1681 48.5255 75.9665 46.8414 78.8781 43.9203C79.5763 43.1936 80.2117 42.4179 80.7773 41.6003C80.7982 41.6422 80.7982 41.6911 80.8191 41.7331C80.9518 42.1523 81.0845 42.5926 81.1264 43.0189C80.6865 43.6129 80.1838 44.1719 79.6601 44.724C76.56 47.8686 72.4754 49.6576 68.0835 49.8323V48.7072V48.7002ZM68.0835 53.3054C72.1681 53.1097 75.9665 51.4465 78.8781 48.5045C79.8626 47.5122 80.7144 46.3802 81.4126 45.1852V45.2271C81.4545 45.4717 81.4545 45.7163 81.4545 45.9818C81.4545 46.2474 81.4336 46.8204 81.3917 47.2187C80.889 47.9455 80.3025 48.6583 79.6671 49.3012C76.546 52.4668 72.4614 54.2348 68.0905 54.4375V53.3124L68.0835 53.3054ZM68.0835 57.8826C72.1681 57.6869 75.9665 56.0238 78.8781 53.0818C79.4646 52.4878 79.9952 51.8449 80.498 51.181C80.4351 51.4046 80.3444 51.5793 80.2606 51.8029C79.9743 52.4458 79.6461 53.0608 79.2342 53.7247C78.8851 54.2767 78.4941 54.8288 78.0123 55.3389C75.1705 57.5961 71.7213 58.854 68.0975 59.0147V57.8896L68.0835 57.8826Z" fill="#005485"/>
<path d="M108.19 14.9616C113.538 14.9616 118.984 17.1768 118.984 23.4591C118.984 26.4151 117.742 28.9518 115.109 30.3843C118.566 31.7261 120.367 34.724 120.367 38.4207C120.367 45.0664 114.369 47.7498 108.42 47.7498H96.2852V14.9616H108.19ZM107.45 28.1621C109.942 28.1621 112.156 27.2397 112.156 24.4235C112.156 21.6073 109.984 20.6359 107.45 20.6359H102.932V28.1621H107.45ZM108.099 42.0615C110.962 42.0615 113.496 40.9993 113.496 37.7638C113.496 34.5283 110.962 33.4731 108.099 33.4731H102.932V42.0615H108.099Z" fill="#005485"/>
<path d="M123.97 14.9616H130.84V47.7428H123.97V14.9616Z" fill="#005485"/>
<path d="M134.855 31.3976C134.855 21.6981 141.866 14.0391 151.878 14.0391C161.891 14.0391 168.81 21.3837 168.81 31.3068C168.81 41.2299 161.8 48.6653 151.787 48.6653C141.775 48.6653 134.855 41.2788 134.855 31.3976ZM151.829 42.341C157.967 42.341 161.702 37.3096 161.702 31.3487C161.702 25.3878 158.106 20.3634 151.829 20.3634C145.552 20.3634 141.956 25.3948 141.956 31.3487C141.956 37.3026 145.601 42.341 151.829 42.341Z" fill="#005485"/>
<path d="M170.011 14.9616H195.335V21.0552H186.112V47.7428H179.241V21.0552H170.018V14.9616H170.011Z" fill="#005485"/>
<path d="M199.309 14.9616H209.824C216.464 14.9616 222.832 17.8267 222.832 25.4857C222.832 29.2732 220.57 32.8302 217.204 34.5842L224.633 47.7428H217.064L211.206 36.3871C210.606 36.4361 210.005 36.4361 209.314 36.4361C208.344 36.4361 207.24 36.3452 206.088 36.1565V47.7428H199.309V14.9616ZM206.088 30.4263C207.24 30.608 208.49 30.7058 209.684 30.7058C212.91 30.7058 215.863 29.3641 215.863 25.7163C215.863 22.0685 212.91 20.7757 209.684 20.7757H206.088V30.4263Z" fill="#005485"/>
<path d="M248.023 14.9616V20.8246H234.135V27.9804H246.543V33.8435H234.135V41.8798H248.484V47.7428H227.495V14.9616H248.023Z" fill="#005485"/>
<path d="M262.092 30.4752L251.807 14.9616H259.607L266.016 25.5765L272.426 14.9616H280.037L269.794 30.4752L281.419 47.7428H273.299L265.828 35.7372L258.357 47.7428H250.467L262.092 30.4752Z" fill="#005485"/>
<path d="M293.143 30.4752L282.858 14.9616H290.657L297.067 25.5765L303.477 14.9616H311.087L300.844 30.4752L312.47 47.7428H304.35L296.879 35.7372L289.408 47.7428H281.518L293.143 30.4752Z" fill="#005485"/>
<path d="M325.715 14.9616H333.004L346.061 47.7428H339.002L336.328 40.5381H322.168L319.494 47.7428H312.714L325.722 14.9616H325.715ZM324.325 34.724H334.149L329.213 21.6562L324.325 34.724Z" fill="#005485"/>
<path d="M104.433 53.55C107.359 53.55 110.131 54.9825 111.297 57.7987L108.127 58.7701C107.338 57.3375 106.081 56.5688 104.433 56.5688C101.55 56.5688 99.7272 58.9937 99.7272 61.789C99.7272 64.5842 101.508 67.051 104.545 67.051C106.612 67.051 108.371 65.884 108.658 63.7037H104.761V60.9993H112.023V62.6485C112.023 67.051 108.853 70.0699 104.391 70.0699C99.9297 70.0699 96.3408 66.5479 96.3408 61.8588C96.3408 57.1698 99.6644 53.5569 104.433 53.5569V53.55Z" fill="#005485"/>
<path d="M113.873 53.9902H117.148V66.7156H123.529V69.6226H113.873V53.9902Z" fill="#005485"/>
<path d="M124.325 61.8309C124.325 57.2047 127.67 53.55 132.446 53.55C137.221 53.55 140.517 57.051 140.517 61.782C140.517 66.5129 137.173 70.0629 132.397 70.0629C127.621 70.0629 124.325 66.5409 124.325 61.8309ZM132.425 67.044C135.35 67.044 137.131 64.6471 137.131 61.8029C137.131 58.9588 135.413 56.5618 132.425 56.5618C129.436 56.5618 127.719 58.9588 127.719 61.8029C127.719 64.6471 129.457 67.044 132.425 67.044Z" fill="#005485"/>
<path d="M148.114 53.9902C150.663 53.9902 153.26 55.0454 153.26 58.0433C153.26 59.4549 152.667 60.6639 151.41 61.3487C153.058 61.9846 153.916 63.4172 153.916 65.1782C153.916 68.3508 151.054 69.6226 148.219 69.6226H142.431V53.9902H148.107H148.114ZM147.765 60.2865C148.952 60.2865 150.006 59.8462 150.006 58.5045C150.006 57.1628 148.973 56.7016 147.765 56.7016H145.608V60.2935H147.765V60.2865ZM148.072 66.9112C149.434 66.9112 150.649 66.4081 150.649 64.8637C150.649 63.3193 149.441 62.8162 148.072 62.8162H145.608V66.9112H148.072Z" fill="#005485"/>
<path d="M160.333 53.9902H163.81L170.038 69.6226H166.673L165.395 66.1845H158.643L157.366 69.6226H154.133L160.34 53.9902H160.333ZM159.67 63.4102H164.355L162.002 57.1768L159.67 63.4102Z" fill="#005485"/>
<path d="M171.379 53.9902H174.654V66.7156H181.035V69.6226H171.379V53.9902Z" fill="#005485"/>
<path d="M190.782 53.9902V60.0908H197.688V53.9902H200.963V69.6226H197.688V62.9979H190.782V69.6226H187.508V53.9902H190.782Z" fill="#005485"/>
<path d="M213.182 53.9902V56.7855H206.563V60.1957H212.483V62.9909H206.563V66.8204H213.405V69.6156H203.393V53.9832H213.182V53.9902Z" fill="#005485"/>
<path d="M220.841 53.9902H224.318L230.546 69.6226H227.181L225.903 66.1845H219.151L217.873 69.6226H214.641L220.848 53.9902H220.841ZM220.185 63.4102H224.87L222.517 57.1768L220.185 63.4102Z" fill="#005485"/>
<path d="M231.895 53.9902H235.169V66.7156H241.551V69.6226H231.895V53.9902Z" fill="#005485"/>
<path d="M240.476 53.9902H252.555V56.8973H248.156V69.6226H244.881V56.8973H240.483V53.9902H240.476Z" fill="#005485"/>
<path d="M257.729 53.9902V60.0908H264.634V53.9902H267.909V69.6226H264.634V62.9979H257.729V69.6226H254.454V53.9902H257.729Z" fill="#005485"/>
<path d="M281.992 53.55C285.009 53.55 287.843 55.2481 288.744 58.239L285.574 59.0286C284.89 57.5122 283.64 56.5618 281.943 56.5618C279.109 56.5618 277.586 59.2732 277.586 61.8658C277.586 64.4584 279.06 67.037 281.985 67.037C283.703 67.037 285.023 66.1146 285.728 64.5702L288.898 65.3599C287.906 68.3997 285.134 70.0489 281.992 70.0489C277.419 70.0489 274.207 66.5059 274.207 61.9008C274.207 57.2956 277.307 53.536 281.992 53.536V53.55Z" fill="#005485"/>
<path d="M295.286 53.9902H298.763L304.991 69.6226H301.626L300.348 66.1845H293.596L292.319 69.6226H289.086L295.293 53.9902H295.286ZM294.63 63.4102H299.315L296.962 57.1768L294.63 63.4102Z" fill="#005485"/>
<path d="M311.548 53.9902H315.025L321.253 69.6226H317.888L316.61 66.1845H309.858L308.58 69.6226H305.348L311.555 53.9902H311.548ZM310.892 63.4102H315.577L313.224 57.1768L310.892 63.4102Z" fill="#005485"/>
<path d="M322.601 53.9902H327.614C330.784 53.9902 333.821 55.3529 333.821 59.0077C333.821 60.8106 332.746 62.5087 331.14 63.3473L334.68 69.6226H331.07L328.277 64.2068C327.991 64.2278 327.705 64.2278 327.376 64.2278C326.916 64.2278 326.385 64.1859 325.833 64.095V69.6226H322.601V53.9902ZM325.833 61.3697C326.385 61.4605 326.978 61.5024 327.551 61.5024C329.094 61.5024 330.498 60.8665 330.498 59.1265C330.498 57.3864 329.087 56.7715 327.551 56.7715H325.833V61.3697Z" fill="#005485"/>
<path d="M345.838 53.9902V56.7855H339.219V60.1957H345.14V62.9909H339.219V66.8204H346.061V69.6156H336.049V53.9832H345.838V53.9902Z" fill="#005485"/>
</svg>
